<svg width="532" height="300" viewBox="0 0 532 300" fill="none" xmlns="http://www.w3.org/2000/svg">
<path d="M216.375 299.856C216.375 231.932 271.386 176.869 339.246 176.869H532.001V299.856H216.375Z" fill="#FFBEA6"/>
<rect x="119.613" y="299.856" width="66.8113" height="3.07468" transform="rotate(180 119.613 299.856)" fill="#CACED3"/>
<path d="M481.314 213.765H306.222L327.725 192.242H502.816L481.314 213.765Z" fill="url(#paint0_linear_3891_72884)"/>
<path d="M199.937 91.7685L173.052 91.7687C168.076 91.7688 163.304 89.7909 159.787 86.2708L131.293 57.7495" stroke="url(#paint1_linear_3891_72884)" stroke-width="37.5"/>
<rect width="21.5427" height="21.5225" transform="matrix(5.95684e-09 1 1 -5.96804e-09 105.707 32.3596)" fill="#935A30"/>
<path d="M177.633 278.095L199.374 278.094L221.115 299.856L177.633 299.856L177.633 278.095Z" fill="#0B0E11"/>
<path d="M69.5802 221.626L84.9535 237.013L84.9535 267.789L54.2072 237.013L69.5802 221.626Z" fill="#0B0E11"/>
<rect x="177.633" y="278.094" width="21.7616" height="21.7412" transform="rotate(-90 177.633 278.094)" fill="#935A30"/>
<rect width="21.7514" height="21.7514" transform="matrix(0.706775 -0.707439 0.706774 0.707439 69.5781 221.627)" fill="#935A30"/>
<path d="M152.543 126.994L149.604 129.935C138.099 141.452 138.099 160.124 149.605 171.641V171.641L173.376 147.847L152.543 126.994Z" fill="#484E58"/>
<path d="M184.155 256.333L184.155 164.309L165.707 145.844" stroke="#E56700" stroke-width="46.875"/>
<path d="M162.59 137.765L127.231 173.156L88.0298 212.395" stroke="url(#paint2_linear_3891_72884)" stroke-width="46.875"/>
<path d="M226.772 123.531L251.401 148.184C258.725 155.515 270.606 155.515 277.93 148.184L297.488 128.607" stroke="#0B0E11" stroke-width="37.5"/>
<path d="M254.173 68.8158C261.978 76.6278 261.978 89.2936 254.173 97.1056C246.368 104.918 233.714 104.918 225.91 97.1056L254.173 68.8158Z" fill="#935A30"/>
<path d="M254.175 68.8158C246.37 61.0038 233.716 61.0038 225.911 68.8158C218.107 76.6278 218.107 89.2936 225.911 97.1057L254.175 68.8158Z" fill="#1E2026"/>
<path fill-rule="evenodd" clip-rule="evenodd" d="M234.976 114.684L218.7 114.684L218.7 98.3919L199.617 79.2914L151.787 127.167L199.617 175.042L247.447 127.167L234.976 114.684Z" fill="url(#paint3_linear_3891_72884)"/>
<rect width="21.5225" height="21.5427" transform="matrix(-1 -2.18762e-08 -2.18352e-08 1 325.977 100.065)" fill="#935A30"/>
<path d="M225.62 58.5187L225.62 69.29L214.859 69.29C208.916 69.29 204.098 64.4675 204.098 58.5187C204.098 52.5698 208.916 47.7473 214.859 47.7473C220.802 47.7473 225.62 52.5698 225.62 58.5187Z" fill="#1E2026"/>
<path d="M312.365 143.048C312.365 94.652 351.561 55.4196 399.911 55.4196C448.261 55.4196 487.457 94.652 487.457 143.048C487.457 191.443 448.261 230.676 399.911 230.676C351.561 230.676 312.365 191.443 312.365 143.048Z" fill="url(#paint4_linear_3891_72884)"/>
<path d="M435.406 143.047L399.915 178.572L364.423 143.047L399.915 107.522L435.406 143.047Z" fill="#F0B90B"/>
<path d="M328.302 143.048C328.302 103.44 360.377 71.3566 399.911 71.3566C439.446 71.3566 471.52 103.44 471.52 143.048C471.52 182.656 439.446 214.739 399.911 214.739C360.377 214.739 328.302 182.656 328.302 143.048Z" stroke="#F8D33A" stroke-width="31.874"/>
<rect x="304.688" y="213.765" width="159.733" height="29.978" fill="#FFBEA6"/>
<defs>
<linearGradient id="paint0_linear_3891_72884" x1="334.636" y1="192.242" x2="334.636" y2="221.452" gradientUnits="userSpaceOnUse">
<stop stop-color="#5E6673"/>
<stop offset="1" stop-color="#0B0E11"/>
</linearGradient>
<linearGradient id="paint1_linear_3891_72884" x1="181.813" y1="74.7592" x2="131.293" y2="74.7592" gradientUnits="userSpaceOnUse">
<stop stop-color="#0B0E11"/>
<stop offset="1" stop-color="#474D57"/>
</linearGradient>
<linearGradient id="paint2_linear_3891_72884" x1="166.56" y1="169.182" x2="108.142" y2="227.546" gradientUnits="userSpaceOnUse">
<stop stop-color="#E56700"/>
<stop offset="1" stop-color="#FF7E0D"/>
</linearGradient>
<linearGradient id="paint3_linear_3891_72884" x1="247.133" y1="108.458" x2="179.491" y2="108.458" gradientUnits="userSpaceOnUse">
<stop stop-color="#0B0E11"/>
<stop offset="1" stop-color="#2B2F36"/>
</linearGradient>
<linearGradient id="paint4_linear_3891_72884" x1="399.911" y1="230.676" x2="399.911" y2="55.4196" gradientUnits="userSpaceOnUse">
<stop stop-color="#F0B90B"/>
<stop offset="1" stop-color="#F8D33A"/>
</linearGradient>
</defs>
</svg>
