<svg xmlns="http://www.w3.org/2000/svg" fill="none" viewBox="0 0 96 96" height="96" width="96">
<path fill="#929AA5" d="M88 16H8V80H88V16ZM80 24H16V32H14V44H16V52H14V64H16V72H80V24Z" clip-rule="evenodd" fill-rule="evenodd" opacity="0.5"></path>
<path fill="#F0B90B" d="M58 48C58 56.8366 50.8366 64 42 64C33.1634 64 26 56.8366 26 48C26 39.1634 33.1634 32 42 32C50.8366 32 58 39.1634 58 48ZM42.0001 36.1599L35.7601 39.8399L38.0001 41.1199L42.0001 38.8799L46.0001 41.1199L48.2401 39.8399L42.0001 36.1599ZM46.0001 43.0399L48.2401 44.3199V47.0399L44.2401 49.2799V53.9199L42.0001 55.1999L39.7601 53.9199V49.2799L35.7601 47.0399V44.3199L38.0001 43.0399L42.0001 45.2799L46.0001 43.0399ZM48.2401 48.9599V51.6799L46.0001 52.9599V50.2399L48.2401 48.9599ZM45.8401 54.7199L49.8401 52.4799V47.9999L52.0801 46.5599V53.7599L45.8401 57.4399V54.7199ZM49.8401 43.3599L47.6001 42.0799L49.8401 40.7999L52.0801 42.0799V44.7999L49.8401 46.0799V43.3599ZM39.7601 58.5599V55.8399L42.0001 57.1199L44.2401 55.8399V58.5599L42.0001 59.8399L39.7601 58.5599ZM38.0001 52.9599L35.7601 51.6799V48.9599L38.0001 50.2399V52.9599ZM42.0001 43.3599L39.7601 42.0799L42.0001 40.7999L44.2401 42.0799L42.0001 43.3599ZM36.4001 42.0799L34.1601 43.3599V46.0799L31.9201 44.7999V42.0799L34.1601 40.7999L36.4001 42.0799ZM31.9201 46.7199L34.1601 47.9999V52.6399L38.1601 54.8799V57.5999L31.9201 53.9199V46.7199Z" clip-rule="evenodd" fill-rule="evenodd"></path>
<path fill="#929AA5" d="M16 24H80V72H16V64H18V52H16V44H18V32H16V24ZM76 32H70V64H76V32ZM58 48C58 56.8366 50.8366 64 42 64C33.1634 64 26 56.8366 26 48C26 39.1634 33.1634 32 42 32C50.8366 32 58 39.1634 58 48ZM35.7602 39.8399L35.7601 39.8399L38.0001 41.1199L38.0002 41.1199L35.7602 39.8399ZM46.0002 41.1199L42.0002 38.8799L42.0001 38.8799L46.0001 41.1199L46.0002 41.1199ZM35.7601 44.3199L35.7602 44.3199V47.0399L39.7602 49.2799V53.9199L42.0002 55.1999L42.0001 55.1999L39.7601 53.9199V49.2799L35.7601 47.0399V44.3199ZM46.0002 52.9599V50.2399L46.0001 50.2399V52.9599L46.0002 52.9599ZM49.8401 52.4799L49.8402 52.4799V47.9999L49.8401 47.9999V52.4799ZM45.8401 54.7199L45.8402 54.7199V57.4399L45.8401 57.4399V54.7199ZM49.8401 43.3599L47.6001 42.0799L47.6002 42.0799L49.8402 43.3599V46.0799L49.8401 46.0799V43.3599ZM42.0001 59.8399L39.7601 58.5599V55.8399L39.7602 55.84V58.5599L42.0002 59.8399L42.0001 59.8399ZM38.0001 52.9599L35.7601 51.6799V48.9599L35.7602 48.96V51.6799L38.0001 52.9599V52.9599ZM42.0001 43.3599L39.7601 42.0799L39.7602 42.0799L42.0002 43.3599L42.0001 43.3599ZM34.1601 46.0799L31.9202 44.7999V42.0799L31.9201 42.0799V44.7999L34.1601 46.0799V46.0799ZM31.9202 46.72L31.9201 46.7199V53.9199L38.1601 57.5999V57.5999L31.9202 53.9199V46.72Z" clip-rule="evenodd" fill-rule="evenodd" opacity="0.15"></path>
</svg>
