<svg xmlns="http://www.w3.org/2000/svg" fill="none" viewBox="0 0 49 49" height="49" width="49">
<g id="Group 1216402164">
<g id="Group 1216402162">
<path fill="#AEB4BC" d="M4.8418 6.0332H44.8413V8.0332H4.8418V6.0332Z" opacity="0.5" id="Rectangle 1256395"></path>
<path fill="#F0B90B" d="M10.0244 16.6307H12.1479L13.5207 26.69H23.6032V25.0925H14.915L14.7341 23.7669H18.498H18.5308H23.4953L24.452 17.9561H18.5308H18.498H13.9411L13.5422 15.0332H10.0244V16.6307ZM14.9915 31.0332C15.8876 31.0332 16.614 30.3068 16.614 29.4108C16.614 28.5147 15.8876 27.7883 14.9915 27.7883C14.0955 27.7883 13.3691 28.5147 13.3691 29.4108C13.3691 30.3068 14.0955 31.0332 14.9915 31.0332ZM21.9807 31.0332C22.8768 31.0332 23.6032 30.3068 23.6032 29.4108C23.6032 28.5147 22.8768 27.7883 21.9807 27.7883C21.0847 27.7883 20.3583 28.5147 20.3583 29.4108C20.3583 30.3068 21.0847 31.0332 21.9807 31.0332Z" clip-rule="evenodd" fill-rule="evenodd" id="Union"></path>
</g>
<path fill="#AEB4BC" d="M4.8418 8.0332H44.8416V38.0332H4.8418V8.0332ZM26.7744 12.0332H8.77441V34.0332H26.7744V12.0332ZM31.0234 12.0332H41.0234V14.0332H31.0234V12.0332ZM31.0234 16.0332H41.0234V18.0332H31.0234V16.0332Z" clip-rule="evenodd" fill-rule="evenodd" opacity="0.2" id="Subtract"></path>
<path fill="#F0B90B" d="M36.6233 25.4402L39.0301 23.0334L32.291 23.0334L32.291 29.7725L34.6978 27.3657L38.2902 30.958L40.2156 29.0325L36.6233 25.4402Z" id="Union_2"></path>
</g>
</svg>
