<svg xmlns="http://www.w3.org/2000/svg" fill="none" viewBox="0 0 588 331" height="331" width="588">
<path fill-opacity="0.5" fill="#AEB4BC" d="M214.794 111.006L159.959 165.841H269.629L214.794 111.006Z"></path>
<path fill-opacity="0.5" fill="#AEB4BC" d="M373.206 111.006L318.371 165.841H428.041L373.206 111.006Z"></path>
<path fill-opacity="0.2" fill="#AEB4BC" d="M281.815 62.2635H306.186V86.6347H415.856V111.006H306.186V245.5H281.815V111.006H172.145V86.6347L281.815 86.6347V62.2635Z"></path>
<path fill-opacity="0.2" fill="#AEB4BC" d="M214.794 220.676C245.079 220.676 269.629 196.125 269.629 165.841H159.959C159.959 196.125 184.509 220.676 214.794 220.676Z"></path>
<path fill-opacity="0.2" fill="#AEB4BC" d="M373.206 220.676C403.491 220.676 428.041 196.125 428.041 165.841H318.371C318.371 196.125 342.922 220.676 373.206 220.676Z"></path>
<path fill-opacity="0.5" fill="#AEB4BC" d="M208.701 281.604L379.299 281.604L379.299 245.047L208.701 245.047L208.701 281.604Z"></path>
<path fill="#F0B90B" d="M526.69 57.4625L443.695 57.4625L443.695 126.913L487.02 126.914V140.676L500.951 126.914L526.69 126.913L526.69 57.4625ZM492.808 73.8626L498.036 76.8855L504.795 76.4797L509.396 84.4483L505.666 90.097V96.1348L509.396 101.783L504.795 109.752L498.036 109.346L492.808 112.369L489.783 118.42H480.581L477.556 112.369L472.328 109.346L465.569 109.752L460.968 101.783L464.697 96.1348V90.097L460.968 84.4484L465.569 76.4798L472.328 76.8855L477.556 73.8626L480.581 67.8122H489.783L492.808 73.8626ZM485.242 79.3145C492.864 79.3145 499.044 85.4939 499.044 93.1166C499.044 100.739 492.864 106.919 485.242 106.919C477.619 106.919 471.439 100.739 471.439 93.1166C471.439 85.4939 477.619 79.3145 485.242 79.3145ZM485.243 86.2153L478.342 93.1163L485.243 100.017L492.144 93.1163L485.243 86.2153Z" clip-rule="evenodd" fill-rule="evenodd"></path>
<path fill="#F0B90B" d="M133.537 130.327L50.5421 130.327L50.5421 199.777L76.2818 199.778L90.2127 213.541V199.778L133.537 199.777L133.537 130.327ZM114.769 147.614H92.1969V157.373H103.168L92.0645 168.721L84.0372 161.128L80.6884 157.96L77.3354 161.124L61.9499 175.64L68.647 182.738L80.6796 171.385L88.8437 179.108L92.3293 182.405L95.6847 178.976L109.889 164.458V174.531H119.648V152.493V147.614H114.769Z" clip-rule="evenodd" fill-rule="evenodd"></path>
</svg>
