<svg xmlns="http://www.w3.org/2000/svg" fill="none" viewBox="0 0 588 371" height="371" width="588">
<path fill="#FFBEA6" d="M329.665 125.832C330.686 124.143 332.883 123.601 334.572 124.623L340.477 128.193C342.166 129.214 342.708 131.412 341.686 133.101C340.665 134.79 338.468 135.331 336.779 134.31L330.874 130.739C329.185 129.718 328.643 127.521 329.665 125.832Z" clip-rule="evenodd" fill-rule="evenodd"></path>
<path fill="#929AA5" d="M198.48 371L198.48 114.699L213.466 114.699L213.466 371L198.48 371Z" clip-rule="evenodd" fill-rule="evenodd"></path>
<path fill="#929AA5" d="M205.033 316.952L260.485 261.499L265.121 266.135L209.669 321.588L205.033 316.952Z" clip-rule="evenodd" fill-rule="evenodd"></path>
<path fill="#929AA5" d="M162.07 157.029L206.106 201.065L201.47 205.701L157.434 161.665L162.07 157.029Z" clip-rule="evenodd" fill-rule="evenodd"></path>
<path fill="url(#paint0_linear_72_295)" d="M205.97 6.98996C175.192 6.98996 150.241 31.9405 150.241 62.7185C150.241 93.4965 175.192 118.447 205.97 118.447C236.748 118.447 261.698 93.4965 261.698 62.7185C261.698 31.9405 236.748 6.98996 205.97 6.98996ZM205.969 85.305L228.562 62.7124L205.969 40.1197L183.377 62.7124L205.969 85.305Z" clip-rule="evenodd" fill-rule="evenodd"></path>
<path fill="#F8D33A" d="M166.774 62.7185C166.774 41.0715 184.323 23.5231 205.97 23.5231C227.617 23.5231 245.165 41.0715 245.165 62.7185C245.165 84.3655 227.617 101.914 205.97 101.914C184.323 101.914 166.774 84.3655 166.774 62.7185ZM150.241 62.7185C150.241 31.9405 175.192 6.98996 205.97 6.98996C236.748 6.98996 261.698 31.9405 261.698 62.7185C261.698 93.4965 236.748 118.447 205.97 118.447C175.192 118.447 150.241 93.4965 150.241 62.7185Z" clip-rule="evenodd" fill-rule="evenodd"></path>
<path fill="url(#paint1_linear_72_295)" d="M270.591 231.774C257.142 231.774 246.239 242.676 246.239 256.126C246.239 269.575 257.142 280.478 270.591 280.478C284.041 280.478 294.943 269.575 294.943 256.126C294.943 242.676 284.041 231.774 270.591 231.774ZM270.598 265.998L280.47 256.126L270.598 246.253L260.725 256.126L270.598 265.998Z" clip-rule="evenodd" fill-rule="evenodd"></path>
<path fill="#F8D33A" d="M270.591 238.998C261.132 238.998 253.464 246.666 253.464 256.126C253.464 265.585 261.132 273.253 270.591 273.253C280.051 273.253 287.719 265.585 287.719 256.126C287.719 246.666 280.051 238.998 270.591 238.998ZM270.591 231.774C257.142 231.774 246.239 242.676 246.239 256.126C246.239 269.575 257.142 280.478 270.591 280.478C284.041 280.478 294.943 269.575 294.943 256.126C294.943 242.676 284.041 231.774 270.591 231.774Z" clip-rule="evenodd" fill-rule="evenodd"></path>
<path fill="url(#paint2_linear_72_295)" d="M152.58 120.324C134.992 120.324 120.735 134.581 120.735 152.169C120.735 169.756 134.992 184.013 152.58 184.013C170.167 184.013 184.425 169.756 184.425 152.169C184.425 134.581 170.167 120.324 152.58 120.324ZM152.591 165.078L165.501 152.168L152.591 139.258L139.681 152.168L152.591 165.078Z" clip-rule="evenodd" fill-rule="evenodd"></path>
<path fill="#F8D33A" d="M152.584 129.767C140.214 129.767 130.186 139.795 130.186 152.165C130.186 164.534 140.214 174.562 152.584 174.562C164.954 174.562 174.981 164.534 174.981 152.165C174.981 139.795 164.954 129.767 152.584 129.767ZM152.584 120.32C134.996 120.32 120.739 134.577 120.739 152.165C120.739 169.752 134.996 184.01 152.584 184.01C170.171 184.01 184.429 169.752 184.429 152.165C184.429 134.577 170.171 120.32 152.584 120.32Z" clip-rule="evenodd" fill-rule="evenodd"></path>
<path fill="#929AA5" d="M205.972 159.156L252.552 112.576L280.682 84.5088C306.408 58.7829 348.118 58.7829 373.844 84.5088L327.263 131.09L299.133 159.156C273.407 184.882 231.698 184.882 205.972 159.156Z"></path>
<path fill="#929AA5" d="M73 213.869C97.517 189.352 137.267 189.352 161.784 213.869L206.176 258.261C181.659 282.778 141.909 282.778 117.392 258.261L73 213.869Z"></path>
<path fill="#929AA5" d="M219.081 191.5L248.584 191.5L279.961 191.5C296.255 191.5 309.464 204.5 309.464 220.535L279.961 220.535L248.584 220.535C232.29 220.535 219.081 207.536 219.081 191.5Z"></path>
<path fill="#929AA5" d="M171.315 208.831L179.277 200.87L187.238 208.831L179.277 216.792L171.315 208.831Z"></path>
<path fill="#929AA5" d="M222.834 326.367L235.01 314.191L247.186 326.367L235.01 338.543L222.834 326.367Z"></path>
<path fill="#76808E" d="M503.682 344.546L444.924 198.476L417.899 209.347L476.657 355.417L503.682 344.546Z" clip-rule="evenodd" fill-rule="evenodd"></path>
<path fill="#76808E" d="M401.817 193.735V350.97H430.946V193.735H401.817Z" clip-rule="evenodd" fill-rule="evenodd"></path>
<path fill="#FFBEA6" d="M366.066 171.794L327.762 148.364L340.198 128.033L378.429 151.419L419.076 151.419C425.658 151.419 430.993 156.754 430.993 163.335C430.993 169.916 425.658 175.251 419.076 175.251L378.343 175.251C374.011 175.251 369.762 174.055 366.066 171.794Z" clip-rule="evenodd" fill-rule="evenodd"></path>
<path fill="#0B0E11" d="M437.637 163.335C437.637 156.754 432.302 151.419 425.72 151.419L390.854 151.419L390.854 175.251L425.72 175.251C432.302 175.251 437.637 169.916 437.637 163.335Z" clip-rule="evenodd" fill-rule="evenodd"></path>
<path fill="#0B0E11" d="M449.477 175.257V202.037H401.818V175.257C401.818 162.096 412.487 151.427 425.647 151.427C438.808 151.427 449.477 162.096 449.477 175.257Z"></path>
<path fill="#0B0E11" d="M430.997 368.345L430.93 322.771L401.825 322.771V347.816L377.274 368.408L430.997 368.345Z"></path>
<path fill="#0B0E11" d="M515.362 369.147L494.595 321.973L462.955 321.395L473.337 348.145L447.952 369.209L515.362 369.147Z"></path>
<path fill="#FFBEA6" d="M312.365 129.818L342.253 134.743L348.855 142.461L336.092 152.596L322.617 148.588C316.586 146.794 312.437 141.267 312.398 134.974L312.365 129.818Z"></path>
<path fill="#FFBEA6" d="M408.871 128.039C408.871 136.848 416.013 143.99 424.822 143.99C433.632 143.99 440.773 136.848 440.773 128.039C440.773 119.229 433.632 112.088 424.822 112.088C416.013 112.088 408.871 119.229 408.871 128.039Z"></path>
<mask height="32" width="33" y="112" x="408" maskUnits="userSpaceOnUse" style="mask-type:alpha" id="mask0_72_295">
<path fill="#FF7E0D" d="M409.413 123.904C407.136 132.412 412.191 141.158 420.704 143.44C429.217 145.722 437.963 140.676 440.24 132.168C442.517 123.661 437.461 114.914 428.949 112.632C420.436 110.35 411.689 115.397 409.413 123.904Z"></path>
</mask>
<g mask="url(#mask0_72_295)">
<path fill="#0B0E11" d="M418.484 119.91C407.134 116.867 400.394 105.205 403.429 93.8621C406.464 82.519 418.126 75.7901 429.476 78.8327C440.827 81.8753 447.567 93.5372 444.531 104.88C443.825 107.52 442.652 109.909 441.124 111.984C443.244 111.659 445.464 111.758 447.669 112.349C456.181 114.631 461.237 123.377 458.96 131.885C456.683 140.392 447.937 145.439 439.425 143.157C430.912 140.875 425.857 132.128 428.133 123.621C428.492 122.28 429.012 121.024 429.667 119.87C426.129 120.852 422.289 120.93 418.484 119.91Z" clip-rule="evenodd" fill-rule="evenodd"></path>
</g>
<path fill="#FFBEA6" d="M352.692 211.717L384.464 200.664L391.308 203.74L382.091 218.242L366.769 219.281C362.894 219.544 359.062 218.342 356.031 215.914L352.462 213.054C351.986 212.673 352.117 211.917 352.692 211.717Z"></path>
<path fill="#FFBEA6" d="M437.564 165.084C444.143 165.084 449.475 170.419 449.473 177L449.461 214.145C449.455 231.332 431.628 242.719 416.042 235.492L375.684 216.778L385.71 195.155L425.636 213.668L425.647 177C425.65 170.419 430.985 165.084 437.564 165.084Z" clip-rule="evenodd" fill-rule="evenodd"></path>
<path fill="#0B0E11" d="M437.567 165.084C444.145 165.084 449.476 170.419 449.474 177L449.467 198.483L425.645 198.483L425.652 177C425.654 170.419 430.989 165.083 437.567 165.084Z" clip-rule="evenodd" fill-rule="evenodd"></path>
<path fill="#FFBEA6" d="M375.702 194.573C376.639 192.648 378.958 191.846 380.882 192.782L390.898 197.652C392.823 198.588 393.624 200.907 392.688 202.832C391.752 204.757 389.433 205.559 387.508 204.623L377.492 199.753C375.567 198.817 374.766 196.498 375.702 194.573Z" clip-rule="evenodd" fill-rule="evenodd"></path>
<defs>
<linearGradient gradientUnits="userSpaceOnUse" y2="6.98996" x2="205.97" y1="118.447" x1="205.97" id="paint0_linear_72_295">
<stop stop-color="#F0B90B"></stop>
<stop stop-color="#F8D33A" offset="1"></stop>
</linearGradient>
<linearGradient gradientUnits="userSpaceOnUse" y2="231.774" x2="270.591" y1="280.478" x1="270.591" id="paint1_linear_72_295">
<stop stop-color="#F0B90B"></stop>
<stop stop-color="#F8D33A" offset="1"></stop>
</linearGradient>
<linearGradient gradientUnits="userSpaceOnUse" y2="120.324" x2="152.58" y1="184.013" x1="152.58" id="paint2_linear_72_295">
<stop stop-color="#F0B90B"></stop>
<stop stop-color="#F8D33A" offset="1"></stop>
</linearGradient>
</defs>
</svg>
