<svg xmlns="http://www.w3.org/2000/svg" fill="none" viewBox="0 0 48 48" height="48" width="48">
<g id="il/receive">
<path fill="#AEB4BC" d="M6 20H42V42H6V20Z" opacity="0.2" id="Rectangle 1256640"></path>
<path fill="#F0B90B" d="M24 8C27.866 8 31 11.134 31 15C31 18.866 27.866 22 24 22C20.134 22 17 18.866 17 15C17 11.134 20.134 8 24 8ZM24 18L21 15L24 12L27 15L24 18Z" clip-rule="evenodd" fill-rule="evenodd" id="Subtract"></path>
<path fill="#F0B90B" d="M34.9995 26C37.7609 26 39.9995 28.2386 39.9995 31C39.9995 33.7614 37.7609 36 34.9995 36C32.2381 36 29.9995 33.7614 29.9995 31C29.9995 28.2386 32.2381 26 34.9995 26ZM34.9995 33.1429L32.8567 31L34.9995 28.8571L37.1424 31L34.9995 33.1429Z" clip-rule="evenodd" fill-rule="evenodd" id="Subtract_2"></path>
<path fill="#F0B90B" d="M13.9995 32.0005C17.3132 32.0005 19.9995 34.6868 19.9995 38.0005C19.9995 41.3142 17.3132 44.0005 13.9995 44.0005C10.6858 44.0005 7.99951 41.3142 7.99951 38.0005C7.99951 34.6868 10.6858 32.0005 13.9995 32.0005ZM13.9995 40.5719L11.4281 38.0005L13.9995 35.4291L16.571 38.0005L13.9995 40.5719Z" clip-rule="evenodd" fill-rule="evenodd" id="Subtract_3"></path>
</g>
</svg>
