<svg xmlns="http://www.w3.org/2000/svg" fill="none" viewBox="0 0 48 48" height="48" width="48">
<g opacity="0.5">
<path fill="#AEB4BC" d="M15 20.5H12V23.5H15V20.5Z"></path>
<path fill="#AEB4BC" d="M27.25 20.5H18V23.5H27.25V20.5Z"></path>
</g>
<path fill="#AEB4BC" d="M4.24023 6H44.2397V8H4.24023V6Z" opacity="0.5"></path>
<path fill="#AEB4BC" d="M29.791 18.1618C29.791 16.6917 30.9838 15.5 32.4552 15.5C33.9265 15.5 35.1193 16.6917 35.1193 18.1618V25.2598H38.6716C41.6144 25.2598 44 27.6432 44 30.5833V39.4559H29.8355L29.7914 39.5L21 30.7166L22.2559 29.4618C23.6432 28.0759 25.8923 28.0759 27.2796 29.4618L29.791 31.9709V18.1618Z" clip-rule="evenodd" fill-rule="evenodd" opacity="0.5"></path>
<path fill="#F0B90B" d="M44 36.5V42L26 42L26 36.5L44 36.5Z"></path>
<path fill="#AEB4BC" d="M4.24023 8H44.2397V39H44V36.5V30.5833C44 28.1015 42.3001 26.0163 40 25.4266V12.5H9V25.5H29.791V31.9709L27.2796 29.4618C25.8923 28.0759 23.6432 28.0759 22.2559 29.4618L21 30.7166L26.7887 36.5H26V39H4.24023V8Z" clip-rule="evenodd" fill-rule="evenodd" opacity="0.2"></path>
</svg>
