<svg xmlns="http://www.w3.org/2000/svg" fill="none" viewBox="0 0 48 48" height="48" width="48">
<path fill="#929AA5" d="M17.773 44C15.4394 43.9929 12.7592 43.0661 10.001 40.3078V26H21.8509L29.0956 33.2447C27.2873 35.0531 24.3554 35.0531 22.547 33.2447L19.4503 30.148L18.441 31.1573L23.2439 36.0119L38.001 36.0119C38.001 40.4204 34.4272 43.9942 30.0186 43.9942L17.8881 44H17.773Z" clip-rule="evenodd" fill-rule="evenodd" opacity="0.2"></path>
<path fill="#AEB4BC" d="M4.00098 26L10.001 26L10.001 44L4.00098 44L4.00098 26Z" opacity="0.5"></path>
<path fill="#F0B90B" d="M21.9805 8.03027C25.2942 8.03027 27.9805 10.7166 27.9805 14.0303C27.9805 17.344 25.2942 20.0303 21.9805 20.0303C18.6668 20.0303 15.9805 17.344 15.9805 14.0303C15.9805 10.7166 18.6668 8.03027 21.9805 8.03027ZM21.9805 16.4303L19.5805 14.0303L21.9805 11.6303L24.3805 14.0303L21.9805 16.4303Z" clip-rule="evenodd" fill-rule="evenodd"></path>
<path fill="#F0B90B" d="M35 17.0205C38.866 17.0205 42 20.1545 42 24.0205C42 27.8865 38.866 31.0205 35 31.0205C31.134 31.0205 28 27.8865 28 24.0205C28 20.1545 31.134 17.0205 35 17.0205ZM35 26.8205L32.2 24.0205L35 21.2205L37.8 24.0205L35 26.8205Z" clip-rule="evenodd" fill-rule="evenodd"></path>
</svg>
