<svg xmlns="http://www.w3.org/2000/svg" fill="none" viewBox="0 0 96 96" height="96" width="96">
<path fill="#929AA5" d="M8.00098 64.0007H88.001V88.0007H8.00098V64.0007Z" opacity="0.15"></path>
<path fill="#F0B90B" d="M52.001 16.0007C58.6284 16.0007 64.001 21.3733 64.001 28.0007C64.001 34.6282 58.6284 40.0007 52.001 40.0007C45.3736 40.0007 40.001 34.6282 40.001 28.0007C40.001 21.3733 45.3736 16.0007 52.001 16.0007ZM52.0011 32.8008L47.2011 28.0008L52.0011 23.2008L56.8011 28.0008L52.0011 32.8008Z" clip-rule="evenodd" fill-rule="evenodd"></path>
<path fill="#929AA5" d="M80.001 16.0007H72.001V48.0001H64.001L76.001 60.0001L88.001 48.0001H80.001V16.0007Z" clip-rule="evenodd" fill-rule="evenodd" opacity="0.5"></path>
<path fill="#F0B90B" d="M47.9995 58C47.9995 48.0589 39.9406 40 29.9995 40C20.0584 40 11.9995 48.0589 11.9995 58C11.9995 63.6545 14.6068 68.7001 18.6848 72H41.3142C45.3922 68.7001 47.9995 63.6545 47.9995 58ZM22.7995 58L29.9995 65.2001L37.1995 58L29.9995 50.8L22.7995 58Z" clip-rule="evenodd" fill-rule="evenodd"></path>
</svg>
