<svg xmlns="http://www.w3.org/2000/svg" fill="none" viewBox="0 0 500 320" height="320" width="500">
<path fill="#5E6673" d="M210.794 208.776H241.632V239.694H210.794V208.776Z"></path>
<path fill="#5E6673" d="M284.669 208.776H253.832V239.694H284.669V208.776Z"></path>
<path fill="#929AA5" d="M241.633 229.793H210.815V255.031C198.913 255.031 196.912 266.012 198.063 271.503H241.633V229.793Z"></path>
<path fill="#929AA5" d="M253.832 229.793H284.649V255.031C296.551 255.031 298.553 266.012 297.402 271.503H253.832V229.793Z"></path>
<path fill="#929AA5" d="M176.967 244.85C177.089 247.082 178.451 248.952 180.349 249.827L177.483 255.965C173.397 254.066 170.467 250.032 170.204 245.219C169.934 240.279 172.548 235.848 176.579 233.564L176.579 229.649L188.234 229.649L188.234 233.168C192.244 235.095 195.108 239.09 195.368 243.846C195.655 249.116 192.662 253.806 188.167 255.93L185.286 249.798C187.358 248.814 188.738 246.648 188.605 244.215C188.43 241.001 185.682 238.538 182.468 238.713C179.254 238.889 176.791 241.636 176.967 244.85Z" clip-rule="evenodd" fill-rule="evenodd"></path>
<path fill="#5E6673" d="M169.629 202.334L169.629 230.949L195.944 230.949L195.944 202.334C195.944 195.067 190.053 189.176 182.787 189.176C175.52 189.176 169.629 195.067 169.629 202.334Z" clip-rule="evenodd" fill-rule="evenodd"></path>
<path stroke-linecap="round" stroke-width="1.95776" stroke="white" fill="#0B0E11" d="M241.671 74.1266C239.026 74.1266 236.883 76.2702 236.883 78.9144V102.22C236.883 104.864 239.026 107.008 241.671 107.008C244.315 107.008 246.458 104.864 246.458 102.22V78.9144C246.458 76.2702 244.315 74.1266 241.671 74.1266Z" clip-rule="evenodd" fill-rule="evenodd"></path>
<path fill="#5E6673" d="M159.25 128.942H169.846V170.812H159.25V128.942Z"></path>
<ellipse fill="#F8D33A" transform="matrix(-1 0 0 1 182.892 128.943)" ry="20.935" rx="13.0496" cy="20.935" cx="13.0496"></ellipse>
<path fill="#F0B90B" d="M185.35 163.767C178.144 163.766 172.302 154.393 172.302 142.832C172.302 131.27 178.144 121.898 185.35 121.897C185.351 121.897 185.351 121.897 185.351 121.897H195.946V130.607C197.491 134.046 198.401 138.269 198.401 142.832C198.401 147.395 197.491 151.617 195.946 155.057V163.767H185.35V163.767Z" clip-rule="evenodd" fill-rule="evenodd"></path>
<ellipse fill="#F8D33A" transform="matrix(-1 0 0 1 208.993 121.896)" ry="20.935" rx="13.0496" cy="20.935" cx="13.0496"></ellipse>
<g clip-path="url(#clip0_1069_29561)">
<rect fill="white" transform="translate(301.226 98.9904)" height="123.388" width="42.7745"></rect>
<path fill="#0B0E11" d="M347.329 160.362L321.472 136.061L296.364 161.017L322.222 185.313L347.329 160.362ZM287.178 161.135L321.337 127.182L356.514 160.244L322.356 194.19L320.026 192L287.178 161.135Z"></path>
<path fill="#0B0E11" d="M366.049 160.121L321.197 117.964L277.643 161.257L322.497 203.409L366.051 160.121M268.457 161.375L321.062 109.085L375.234 160.001L322.631 212.285L320.301 210.095L268.457 161.375Z"></path>
<path fill="#0B0E11" d="M384.472 159.883L320.927 100.161L259.221 161.495L322.767 221.217L384.472 159.883ZM250.035 161.612L285.412 126.448L320.79 91.2833L393.657 159.765L322.9 230.096L320.57 227.906L250.034 161.614"></path>
<path fill="#0B0E11" d="M402.972 159.644L320.651 82.2795L240.716 161.732L323.036 239.099L402.97 159.646M231.531 161.85L320.517 73.401L412.158 159.526L323.173 247.976L320.844 245.786L231.531 161.85Z"></path>
<path fill="#0B0E11" d="M423.061 159.435L320.745 63.2767L221.393 162.029L323.709 258.187L423.061 159.435ZM212.208 162.148L320.611 54.3995L432.247 159.317L323.846 267.066L321.515 264.876L212.208 162.148Z"></path>
<path fill="#0B0E11" d="M443.448 159.174L320.447 43.5726L201.008 162.292L324.011 277.892L443.45 159.173M191.822 162.41L320.311 34.6954L452.634 159.055L324.145 286.769L321.816 284.579L191.822 162.41Z"></path>
<path fill="#0B0E11" d="M329.679 160.588L321.731 153.116L314.014 160.789L321.963 168.257L329.68 160.587M304.826 160.908L321.595 144.236L338.865 160.47L322.097 177.134L319.767 174.944L304.828 160.908"></path>
</g>
<path fill="#F8D33A" d="M301.563 99.0874H155.543L155.727 222.341L301.748 222.57L301.563 99.0874Z"></path>
<rect fill="#0B0E11" transform="matrix(-1 0 0 1 287.762 110.095)" rx="14.5723" height="76.0869" width="120.844"></rect>
<rect fill="white" transform="rotate(45 258.384 130.514)" height="21.5082" width="21.5082" y="130.514" x="258.384"></rect>
<rect fill="white" transform="rotate(45 193.88 130.514)" height="21.5082" width="21.5082" y="130.514" x="193.88"></rect>
<path fill="white" d="M214.585 156.414L218.738 152.261L226.09 159.613L233.407 152.296L237.56 156.449L226.09 167.919L214.585 156.414Z" clip-rule="evenodd" fill-rule="evenodd"></path>
<path fill="#929AA5" d="M317.762 245.28C317.879 247.425 319.189 249.223 321.013 250.065L318.258 255.966C314.33 254.14 311.513 250.261 311.26 245.635C311.001 240.886 313.514 236.627 317.388 234.43L317.388 230.666L328.593 230.666L328.593 234.049C332.448 235.901 335.202 239.742 335.451 244.314C335.728 249.381 332.85 253.889 328.529 255.931L325.759 250.037C327.752 249.09 329.078 247.008 328.95 244.669C328.781 241.58 326.14 239.212 323.051 239.38C319.961 239.549 317.593 242.19 317.762 245.28Z" clip-rule="evenodd" fill-rule="evenodd"></path>
<path fill="#5E6673" d="M310.199 202.842L310.199 231.457L336.513 231.457L336.513 202.842C336.513 195.575 330.623 189.684 323.356 189.684C316.089 189.684 310.199 195.575 310.199 202.842Z" clip-rule="evenodd" fill-rule="evenodd"></path>
<path fill="#F8D33A" d="M309.894 202.241L309.894 223.182L336.988 223.182L336.988 202.241C336.988 194.759 330.923 188.694 323.441 188.694C315.96 188.694 309.894 194.759 309.894 202.241Z" clip-rule="evenodd" fill-rule="evenodd"></path>
<circle fill="#F8D33A" transform="matrix(-1 0 0 1 258.385 49)" r="16.7525" cy="16.7525" cx="16.7525"></circle>
<rect fill="#F8D33A" transform="rotate(135 98.6626 176.682)" height="15.1065" width="15.5294" y="176.682" x="98.6626"></rect>
<rect fill="#CACED3" transform="rotate(-45 374 62.8995)" height="14" width="14" y="62.8995" x="374"></rect>
<defs>
<clipPath id="clip0_1069_29561">
<rect transform="translate(301.226 98.9904)" fill="white" height="123.388" width="42.7745"></rect>
</clipPath>
</defs>
</svg>
