<svg xmlns="http://www.w3.org/2000/svg" fill="none" viewBox="0 0 48 48" height="48" width="48">
<g id="il/borrow">
<path fill="#AEB4BC" d="M17.7725 44.0005C15.4389 43.9934 12.7587 43.0666 10.0005 40.3083V26.0005H21.8504L29.0951 33.2452C27.2868 35.0535 24.3549 35.0535 22.5465 33.2452L19.4498 30.1484L18.4405 31.1578L23.2434 36.0124L38.0005 36.0124C38.0005 40.4209 34.4267 43.9947 30.0181 43.9947L17.8876 44.0005H17.7725Z" clip-rule="evenodd" fill-rule="evenodd" opacity="0.2" id="Intersect"></path>
<path fill="#AEB4BC" d="M4.00049 26.0005L10.0005 26.0005L10.0005 44.0005L4.00049 44.0005L4.00049 26.0005Z" opacity="0.5" id="Rectangle 42551"></path>
<path fill="#F0B90B" d="M40.9995 14.9795C40.9995 8.90436 36.0746 3.97949 29.9995 3.97949C23.9244 3.97949 18.9995 8.90436 18.9995 14.9795C18.9995 21.0546 23.9244 25.9795 29.9995 25.9795C30.0054 25.9795 30.0112 25.9795 30.0171 25.9795C30.0054 25.8143 29.9995 25.6476 29.9995 25.4795C29.9995 21.6135 33.1335 18.4795 36.9995 18.4795C38.1326 18.4795 39.2028 18.7487 40.1496 19.2266C40.6971 17.9199 40.9995 16.485 40.9995 14.9795ZM25.5995 14.9795L29.9995 19.3795L34.3995 14.9795L29.9995 10.5795L25.5995 14.9795Z" clip-rule="evenodd" fill-rule="evenodd" id="Subtract"></path>
<path fill="#AEB4BC" d="M36.9995 32.4795C40.8655 32.4795 43.9995 29.3455 43.9995 25.4795C43.9995 21.6135 40.8655 18.4795 36.9995 18.4795C33.1335 18.4795 29.9995 21.6135 29.9995 25.4795C29.9995 29.3455 33.1335 32.4795 36.9995 32.4795ZM36.3742 23.2919C36.3742 24.1549 35.6746 24.8544 34.8117 24.8544C33.9488 24.8544 33.2493 24.1549 33.2493 23.2919C33.2493 22.429 33.9488 21.7295 34.8117 21.7295C35.6746 21.7295 36.3742 22.429 36.3742 23.2919ZM40.7492 27.6669C40.7492 28.5299 40.0496 29.2294 39.1867 29.2294C38.3238 29.2294 37.6243 28.5299 37.6243 27.6669C37.6243 26.804 38.3238 26.1045 39.1867 26.1045C40.0496 26.1045 40.7492 26.804 40.7492 27.6669ZM39.5036 22.0913L40.3875 22.9751L34.4949 28.8677L33.611 27.9838L39.5036 22.0913Z" clip-rule="evenodd" fill-rule="evenodd" opacity="0.5" id="Subtract_2"></path>
</g>
</svg>
