<svg xmlns="http://www.w3.org/2000/svg" fill="none" viewBox="0 0 48 48" height="48" width="48">
<g id="il/security-high">
<path fill="#AEB4BC" d="M42 4H6V32L24 44L32.9748 38.0168L31.4041 36.4461L32.8183 35.0319L34.6718 36.8855L36.2785 35.8143L39.1822 32.9106L39.763 33.4913L42 32V4ZM32 21L24 13L16 21L24 29L32 21Z" clip-rule="evenodd" fill-rule="evenodd" opacity="0.2" id="Subtract"></path>
<path fill="#2EE39D" d="M36 28C31.5817 28 28 31.5817 28 36C28 40.4183 31.5817 44 36 44C40.4183 44 44 40.4183 44 36C44 31.5817 40.4183 28 36 28ZM34.9394 39.9817L36.3536 38.5674L40.5962 34.3248L39.182 32.9106L34.9393 37.1532L32.818 35.0319L31.4038 36.4461L34.9394 39.9817Z" clip-rule="evenodd" fill-rule="evenodd" id="Subtract_2"></path>
</g>
</svg>
