<svg xmlns="http://www.w3.org/2000/svg" fill="none" viewBox="0 0 588 330" height="330" width="588">
<path fill="#F0B90B" d="M398.374 154.76C427.441 154.76 451.004 131.197 451.004 102.13C451.004 73.0633 427.441 49.5 398.374 49.5C369.307 49.5 345.744 73.0633 345.744 102.13C345.744 131.197 369.307 154.76 398.374 154.76ZM389.354 84.2225C389.354 79.2408 393.392 75.2024 398.374 75.2024C403.356 75.2024 407.394 79.2408 407.394 84.2225V93.2427H413.408V84.2225C413.408 75.9197 406.677 69.1889 398.374 69.1889C390.071 69.1889 383.34 75.9197 383.34 84.2225V93.2427H389.354V84.2225ZM401.381 102.263V123.31H395.367V102.263H401.381ZM422.428 132.33H374.321V93.2427H422.428V132.33Z" clip-rule="evenodd" fill-rule="evenodd"></path>
<path fill-opacity="0.2" fill="#AEB4BC" d="M328.498 102.599H137V283.104H362.631V158.286C343.094 147.079 329.651 126.452 328.498 102.599ZM238.534 136.444H159.563V204.133H238.534V136.444ZM306.224 136.444H261.097V159.007H306.224V136.444ZM260.7 181.85H340.068V204.413H260.7V181.85ZM340.068 226.839H260.7V249.402H340.068V226.839Z" clip-rule="evenodd" fill-rule="evenodd"></path>
<g opacity="0.5">
<path fill="#AEB4BC" d="M199.049 192.994C211.51 192.994 221.612 182.892 221.612 170.431C221.612 157.97 211.51 147.868 199.049 147.868C186.588 147.868 176.486 157.97 176.486 170.431C176.486 182.892 186.588 192.994 199.049 192.994Z"></path>
<path fill="#AEB4BC" d="M238.534 249.402V204.276H159.563V249.402H238.534Z"></path>
</g>
</svg>
