<svg xmlns="http://www.w3.org/2000/svg" fill="none" viewBox="0 0 500 320" height="320" width="500">
<path fill="white" d="M218.593 153.923H193.735V67.4612H294.365L294.826 67L295.288 67.4612H295.327V67.5008L370.981 143.155V162.569H218.593V153.923Z"></path>
<mask height="96" width="178" y="67" x="193" maskUnits="userSpaceOnUse" style="mask-type:alpha" id="mask0_1069_27260">
<path fill="#F8D33A" d="M218.593 153.923H193.735V67.4612H294.365L294.826 67L295.288 67.4612H295.327V67.5008L370.981 143.155V162.569H218.593V153.923Z"></path>
</mask>
<g mask="url(#mask0_1069_27260)">
<path fill="#0B0E11" d="M303.426 75.6002L295.327 67.5011V67.4615H295.288L294.893 67.0669H294.76L294.365 67.4615H193.735V75.6002H303.426ZM193.735 92.6669V84.1336H311.96L320.493 92.6669H193.735ZM193.735 109.734V101.2H329.026L337.56 109.734H193.735ZM193.735 126.8V118.267H346.093L354.626 126.8H193.735ZM193.735 143.867V135.334H363.16L370.981 143.155V143.867H193.735ZM218.593 160.934V153.923H193.735V152.4H370.981V160.934H218.593Z" clip-rule="evenodd" fill-rule="evenodd"></path>
</g>
<path fill="#E6E8EA" d="M269.389 162.569H249.935V234.98L210.027 234.981V162.569H190.573V234.981H151.908V162.569H132.454V234.981L117 234.981V262H269.389V234.98V162.569Z" clip-rule="evenodd" fill-rule="evenodd"></path>
<rect fill="#929AA5" height="72.4117" width="17.2923" y="162.569" x="148.666"></rect>
<rect fill="#929AA5" height="72.4117" width="17.2923" y="162.569" x="206.785"></rect>
<path fill="#E6E8EA" d="M117 143.155L117.04 143.194L193.234 67L269.389 143.155V162.569H117V143.155Z" clip-rule="evenodd" fill-rule="evenodd"></path>
<path fill="#929AA5" d="M269.389 162.569H288.843V234.98H335.073V162.569H354.527V234.98L370.981 234.98V262H269.389L269.389 234.98V162.569Z" clip-rule="evenodd" fill-rule="evenodd"></path>
<rect fill="#E6E8EA" height="72.4117" width="17.2923" y="162.569" x="321.023"></rect>
<rect fill="#929AA5" transform="rotate(180 371 163)" height="10" width="102" y="163" x="371"></rect>
<rect fill="#929AA5" transform="rotate(180 371 153)" height="10" width="102" y="153" x="371"></rect>
<path fill="url(#paint0_linear_1069_27260)" d="M190.709 144.547C202.468 144.547 212 135.015 212 123.256C212 111.497 202.468 101.965 190.709 101.965C178.95 101.965 169.417 111.497 169.417 123.256C169.417 135.015 178.95 144.547 190.709 144.547ZM199.834 123.256L190.709 114.131L181.584 123.256L190.709 132.381L199.834 123.256Z" clip-rule="evenodd" fill-rule="evenodd"></path>
<path fill="#F8D33A" d="M398.199 176H458.503V229.412H398.199V176Z"></path>
<path fill="#0B0E11" d="M419.763 200.175C423.108 200.175 425.82 197.463 425.82 194.118C425.82 190.772 423.108 188.061 419.763 188.061C416.418 188.061 413.706 190.772 413.706 194.118C413.706 197.463 416.418 200.175 419.763 200.175ZM436.724 217.135C440.069 217.135 442.781 214.423 442.781 211.078C442.781 207.733 440.069 205.021 436.724 205.021C433.378 205.021 430.667 207.733 430.667 211.078C430.667 214.423 433.378 217.135 436.724 217.135ZM441.379 192.889L437.952 189.463L415.109 212.307L418.535 215.733L441.379 192.889Z" clip-rule="evenodd" fill-rule="evenodd"></path>
<path fill="#F8D33A" d="M398.185 215.628L398.185 211.608L387 202.087L398.185 192.464L398.185 188.922L398.199 188.922L398.199 215.628L398.185 215.628Z" clip-rule="evenodd" fill-rule="evenodd"></path>
<path fill="#F8D33A" d="M102.304 58H42.0001V111.412H102.304V58Z"></path>
<path fill="#202630" d="M63.59 76.8737V80.5111L59.9526 80.5111V100.517H85.4143V80.5111L81.777 80.5111V76.8737C81.777 71.8516 77.7057 67.7803 72.6835 67.7803C67.6613 67.7803 63.59 71.8516 63.59 76.8737ZM77.2302 80.5111V76.8737C77.2302 74.3627 75.1946 72.327 72.6835 72.327C70.1724 72.327 68.1368 74.3627 68.1368 76.8737V80.5111H77.2302ZM75.4115 95.0607V85.9672H69.9555V95.0607H75.4115Z" clip-rule="evenodd" fill-rule="evenodd"></path>
<path fill="#F8D33A" d="M102.318 97.6284L102.318 93.6081L113.504 84.0868L102.318 74.4639L102.318 70.9224L102.304 70.9224L102.304 97.6284L102.318 97.6284Z" clip-rule="evenodd" fill-rule="evenodd"></path>
<defs>
<linearGradient gradientUnits="userSpaceOnUse" y2="144.547" x2="190.709" y1="101.965" x1="190.709" id="paint0_linear_1069_27260">
<stop stop-color="#14151A"></stop>
<stop stop-color="#2B2F36" offset="1"></stop>
</linearGradient>
</defs>
</svg>
