<svg width="24" height="24" viewBox="0 0 24 24" fill="none" xmlns="http://www.w3.org/2000/svg">
<path fill-rule="evenodd" clip-rule="evenodd" d="M15.2307 20.4027C18.2316 19.2481 20.4577 16.5321 20.9137 13.25H16.9718C16.8248 16.1102 16.1791 18.638 15.2307 20.4027ZM16.9718 10.75H20.9137C20.4577 7.46784 18.2316 4.75189 15.2307 3.59729C16.1791 5.36196 16.8248 7.88977 16.9718 10.75ZM7.03566 10.75C7.18282 7.88772 7.82928 5.35834 8.77882 3.59351C5.77291 4.74596 3.54249 7.46425 3.08594 10.75H7.03566ZM7.03566 13.25H3.08594C3.54249 16.5357 5.77291 19.254 8.77882 20.4065C7.82928 18.6416 7.18282 16.1123 7.03566 13.25Z" fill="white"/>
<path d="M12.0005 20.5C13.2563 20.5 14.2959 17.3518 14.4737 13.25H9.52734C9.70514 17.3518 10.7447 20.5 12.0005 20.5Z" fill="#FCD535"/>
<path d="M9.52734 10.75H14.4737C14.2959 6.64821 13.2563 3.5 12.0005 3.5C10.7447 3.5 9.70514 6.64821 9.52734 10.75Z" fill="#FCD535"/>
</svg>
