<svg width="18" height="18" viewBox="0 0 18 18" fill="none" xmlns="http://www.w3.org/2000/svg">
<path d="M11.9787 15.2984H5.73073C4.82739 15.2738 3.9719 14.8924 3.34985 14.2385C2.60311 13.4874 2.20726 12.6073 2.25366 11.1906C2.36386 8.4052 4.56929 6.59706 5.73508 5.86047C5.45088 5.53422 5.08259 5.23698 4.96514 4.58158C4.87669 4.12629 4.99559 3.65504 5.29139 3.2969C5.74523 2.72995 6.47892 2.5864 7.24887 3.004C7.63021 2.52985 8.20586 2.25291 8.81485 2.25001C9.43255 2.24856 10.0183 2.52695 10.4069 3.0069C10.715 2.80162 11.0885 2.71835 11.4546 2.77329C11.8208 2.82824 12.1533 3.01747 12.3876 3.30415C12.5325 3.48032 12.6368 3.68622 12.6932 3.90724C12.7496 4.12826 12.7566 4.35898 12.7139 4.58303C12.6385 5.08908 12.3253 5.37183 11.8946 5.86192C13.0662 6.61591 15.1861 8.4487 15.3006 11.1892C15.3601 12.5986 15.0425 13.4888 14.2856 14.2399C13.6912 14.8881 12.8589 15.2709 11.9787 15.2984Z" fill="#F8D441"/>
<path d="M8.73384 6H9.23574V6.72088C9.68695 6.75604 10.0494 6.89963 10.3232 7.15165C10.6324 7.43297 10.8251 7.89597 10.9011 8.54066H10.0342C9.98859 8.17729 9.87452 7.91941 9.69202 7.76703C9.58048 7.6674 9.42839 7.60586 9.23574 7.58242V9.51648C9.84918 9.78022 10.1736 9.92381 10.2091 9.94725C10.7364 10.293 11 10.7853 11 11.4242C11 12.0454 10.7947 12.5143 10.384 12.8308C10.0798 13.0593 9.69708 13.1912 9.23574 13.2264V14H8.73384V13.2264C8.21166 13.1795 7.81622 13.0095 7.54753 12.7165C7.22814 12.3648 7.04563 11.8286 7 11.1077H7.88213C7.91255 11.5766 8.01394 11.9048 8.18631 12.0923C8.31812 12.233 8.50063 12.3209 8.73384 12.356V10.2989L7.85932 9.92967C7.33207 9.60147 7.06844 9.10916 7.06844 8.45275C7.06844 7.87253 7.26109 7.43004 7.64639 7.12527C7.93029 6.89084 8.29278 6.75604 8.73384 6.72088V6ZM9.23574 12.356C9.45881 12.3209 9.64385 12.2476 9.79087 12.1363C10.0038 11.978 10.1103 11.7524 10.1103 11.4593C10.1103 11.0608 9.84664 10.756 9.31939 10.5451C9.29404 10.5275 9.26616 10.5158 9.23574 10.5099V12.356ZM8.73384 7.57363C8.53612 7.59707 8.37896 7.65568 8.26236 7.74945C8.05957 7.89011 7.95817 8.12454 7.95817 8.45275C7.95817 8.78681 8.21673 9.06813 8.73384 9.2967V7.57363Z" fill="#1A1B24"/>
</svg>
