<svg width="18" height="18" viewBox="0 0 18 18" fill="none" xmlns="http://www.w3.org/2000/svg">
<path d="M15.705 16.5H2.29506C2.18971 16.5 2.08555 16.4778 1.98935 16.4349C1.89315 16.3919 1.80708 16.3292 1.73674 16.2508C1.6664 16.1723 1.61337 16.08 1.5811 15.9797C1.54883 15.8794 1.53805 15.7734 1.54945 15.6687C1.75314 13.8351 2.62581 12.1411 4.00045 10.9107C5.37509 9.68029 7.15516 9 9.00001 9C10.8449 9 12.6249 9.68029 13.9996 10.9107C15.3742 12.1411 16.2469 13.8351 16.4506 15.6687C16.462 15.7734 16.4512 15.8794 16.4189 15.9797C16.3867 16.08 16.3336 16.1723 16.2633 16.2508C16.1929 16.3292 16.1069 16.3919 16.0107 16.4349C15.9145 16.4778 15.8103 16.5 15.705 16.5Z" fill="#B59B34"/>
<path d="M9.53104 13.73L13.0604 10.1939C11.8489 9.41402 10.4385 8.99954 8.99777 9C7.557 9.00046 6.14686 9.41585 4.93591 10.1965L8.46979 13.7303C8.61041 13.871 8.80114 13.95 9.00004 13.9501H9.0004C9.19946 13.9499 9.3903 13.8707 9.53104 13.73Z" fill="#B59B34"/>
<path d="M8.99634 10.5C8.10632 10.5 7.2363 10.2361 6.49627 9.74162C5.75625 9.24715 5.17948 8.54434 4.83888 7.72208C4.49829 6.89981 4.40917 5.99501 4.58281 5.1221C4.75644 4.24918 5.18502 3.44736 5.81436 2.81802C6.4437 2.18869 7.24552 1.7601 8.11843 1.58647C8.99135 1.41283 9.89615 1.50195 10.7184 1.84254C11.5407 2.18314 12.2435 2.75991 12.738 3.49994C13.2324 4.23996 13.4963 5.10999 13.4963 6C13.495 7.19308 13.0205 8.33691 12.1769 9.18054C11.3333 10.0242 10.1894 10.4987 8.99634 10.5Z" fill="#F8D441"/>
<path d="M4.5675 6.75C4.7436 7.79826 5.28551 8.75019 6.09701 9.43673C6.9085 10.1233 7.93705 10.5 9 10.5C10.063 10.5 11.0915 10.1233 11.903 9.43673C12.7145 8.75019 13.2564 7.79826 13.4325 6.75H4.5675Z" fill="#F8D441"/>
</svg>
